<?xml version="1.0" standalone="no"?>
<!DOCTYPE svg PUBLIC "-//W3C//DTD SVG 20010904//EN"
 "http://www.w3.org/TR/2001/REC-SVG-20010904/DTD/svg10.dtd">
<svg version="1.0" xmlns="http://www.w3.org/2000/svg"
 width="612.000000pt" height="374.000000pt" viewBox="0 0 612.000000 374.000000"
 preserveAspectRatio="xMidYMid meet">

<g transform="translate(0.000000,374.000000) scale(0.100000,-0.100000)"
fill="#000000" stroke="none">
<path d="M2675 3124 c-71 -30 -159 -100 -215 -173 -30 -39 -61 -71 -68 -71
-21 0 -93 -40 -118 -65 -13 -13 -24 -22 -24 -19 0 17 -83 -89 -107 -136 -25
-49 -28 -65 -28 -153 l0 -97 -35 -21 c-91 -55 -152 -164 -175 -312 -7 -51 -23
-117 -34 -149 -51 -139 -31 -275 54 -376 l26 -31 -22 -48 c-17 -36 -22 -67
-23 -123 0 -86 24 -143 92 -219 22 -24 45 -61 53 -83 18 -57 88 -153 144 -199
49 -40 161 -99 189 -99 9 0 44 -23 78 -50 173 -140 359 -118 548 63 l50 49 0
1096 0 1095 -45 43 c-65 62 -124 87 -220 91 -58 2 -91 -1 -120 -13z m201 -146
l44 -22 0 -548 0 -548 -34 0 c-122 0 -253 59 -354 160 -43 43 -78 70 -91 70
-27 0 -71 -43 -71 -69 0 -27 68 -111 129 -157 27 -21 50 -44 51 -50 0 -17 -54
-52 -101 -64 -81 -22 -102 -68 -53 -117 21 -21 32 -25 65 -20 56 7 126 44 178
94 l46 44 78 -15 c42 -9 95 -16 117 -16 l40 0 0 -429 0 -430 -43 -35 c-124
-102 -252 -101 -351 2 -29 30 -52 44 -90 53 -133 31 -233 124 -266 247 -7 28
-24 55 -50 78 -43 39 -80 106 -80 146 0 14 5 39 11 56 10 30 12 31 32 17 49
-34 117 -2 117 55 0 30 -18 49 -69 75 -140 71 -185 214 -116 364 15 32 25 71
25 99 0 87 36 187 82 228 80 73 259 100 354 53 46 -23 100 -82 136 -148 9 -17
29 -36 43 -43 35 -16 79 16 83 61 7 69 -116 218 -218 264 -32 14 -76 22 -155
26 l-110 6 -3 40 c-5 59 13 106 60 160 49 55 125 95 183 95 51 0 117 -30 167
-75 42 -38 71 -44 106 -19 25 17 30 68 9 95 -24 30 -117 98 -152 109 -19 6
-35 15 -35 20 0 15 63 69 105 90 54 27 126 26 181 -2z"/>
<path d="M2727 1566 c-110 -46 -213 -133 -253 -215 -13 -29 -27 -42 -47 -47
-19 -4 -33 -17 -44 -39 -15 -30 -15 -36 -1 -57 8 -12 42 -36 74 -53 39 -20 69
-45 91 -75 55 -76 62 -82 91 -75 38 9 62 34 62 62 0 22 -25 81 -39 93 -3 3
-24 24 -45 47 -37 40 -38 43 -26 72 20 49 104 119 188 158 42 19 80 40 84 46
16 26 8 66 -18 86 -34 26 -46 26 -117 -3z"/>
<path d="M3505 3102 c-6 -4 -17 -18 -26 -31 -11 -18 -37 -30 -93 -47 l-77 -22
-24 24 c-54 54 -155 15 -155 -59 0 -38 29 -82 60 -92 29 -9 29 -105 0 -123
-24 -15 -26 -40 -4 -70 14 -20 14 -32 1 -112 -10 -63 -20 -95 -32 -104 -26
-19 -8 -67 20 -53 8 4 84 -126 85 -145 0 -9 -5 -20 -11 -23 -6 -4 -9 -26 -7
-49 2 -34 -2 -48 -24 -74 -15 -18 -33 -32 -40 -32 -20 -1 -48 -25 -48 -42 0
-9 7 -21 15 -28 17 -14 22 -150 5 -150 -5 0 -19 -9 -30 -20 -34 -34 -22 -96
23 -113 14 -5 17 -19 17 -84 0 -67 -3 -80 -20 -91 -36 -22 -21 -92 20 -92 24
0 70 -125 66 -180 -5 -54 -75 -195 -114 -227 l-27 -22 30 -29 c17 -16 43 -57
60 -91 24 -51 27 -65 17 -79 -39 -54 -38 -92 2 -135 35 -38 87 -37 127 2 l29
29 115 -30 c93 -25 116 -35 121 -52 17 -57 84 -76 125 -35 18 18 20 29 15 66
-6 47 -14 34 116 196 18 23 38 37 52 37 30 0 60 33 52 58 -5 14 7 34 42 73 27
30 62 69 79 88 25 29 32 32 50 22 73 -38 166 39 143 119 -11 38 -37 70 -57 70
-17 0 -17 27 2 175 24 184 25 189 40 198 8 4 20 17 26 28 14 28 -13 69 -45 69
-32 0 -127 143 -120 180 4 17 -2 33 -18 49 -31 34 -47 170 -21 186 32 19 61
56 66 83 12 63 -49 127 -115 120 -28 -3 -33 2 -90 105 l-60 107 16 35 c13 26
14 40 6 54 -21 39 -42 52 -81 50 -36 -3 -40 0 -139 115 -84 98 -101 122 -96
142 10 38 -39 78 -69 56z m-10 -82 c3 -5 18 -10 33 -10 22 0 42 -18 102 -91
41 -50 86 -100 99 -110 13 -10 20 -19 16 -19 -4 0 -3 -6 3 -13 7 -8 7 -18 2
-27 -16 -26 -11 -56 15 -84 14 -15 26 -35 26 -44 1 -15 2 -15 6 1 3 10 14 17
28 17 20 0 34 -18 84 -107 l59 -106 -20 -28 c-40 -54 -21 -125 42 -155 33 -16
39 -24 44 -63 10 -72 7 -119 -9 -135 -34 -34 -9 -86 42 -86 11 0 37 -29 69
-75 60 -88 62 -122 11 -149 -18 -9 -23 -14 -12 -10 78 25 79 24 55 -162 -27
-206 -26 -204 -51 -204 -11 0 -34 -13 -50 -30 -18 -18 -36 -27 -47 -24 -16 5
-16 5 0 -5 10 -7 16 -24 16 -46 0 -20 5 -42 12 -50 14 -17 -14 -57 -98 -139
-72 -69 -99 -70 -165 -2 l-50 51 47 -57 c69 -84 66 -108 -27 -223 -64 -79 -77
-90 -106 -92 -19 -1 -46 -11 -62 -22 l-28 -21 -98 26 c-54 13 -106 27 -115 30
-11 3 -18 15 -18 30 0 15 -13 38 -30 56 -24 24 -37 29 -61 26 -29 -5 -32 -1
-64 62 -46 92 -45 131 11 241 28 56 51 88 64 92 26 7 28 57 2 64 -12 3 -28 30
-46 75 -24 61 -26 75 -15 95 11 20 10 27 -9 53 -18 24 -22 43 -22 103 0 70 1
74 30 95 22 16 30 31 30 52 0 29 -29 70 -50 70 -6 0 -10 31 -10 74 0 41 5 78
10 81 6 3 10 14 10 23 0 10 13 34 30 54 27 33 33 35 72 31 32 -4 49 0 66 13
27 22 35 71 17 99 -11 19 -8 27 36 80 29 35 57 59 70 60 35 3 54 50 23 62 -9
3 -20 15 -24 27 l-9 21 0 -22 c-1 -12 -6 -25 -12 -28 -5 -4 -9 -17 -7 -30 3
-25 -87 -142 -106 -137 -6 2 -25 4 -41 4 -26 0 -35 8 -66 62 -44 74 -53 134
-38 238 9 63 15 80 35 93 29 19 31 55 4 80 -26 23 -29 115 -5 115 25 0 65 50
65 81 0 26 5 30 78 52 90 29 99 30 107 17z"/>
<path d="M3698 2693 c6 -2 18 -2 25 0 6 3 1 5 -13 5 -14 0 -19 -2 -12 -5z"/>
<path d="M3648 2683 c6 -2 18 -2 25 0 6 3 1 5 -13 5 -14 0 -19 -2 -12 -5z"/>
<path d="M3432 2668 c-18 -18 -14 -49 7 -55 12 -3 22 -16 24 -32 4 -23 4 -22
6 7 0 17 6 32 11 32 6 0 10 6 10 14 0 8 10 17 23 19 19 4 19 4 -5 6 -15 0 -30
6 -33 11 -8 14 -28 13 -43 -2z"/>
<path d="M3598 2673 c7 -3 16 -2 19 1 4 3 -2 6 -13 5 -11 0 -14 -3 -6 -6z"/>
<path d="M3548 2663 c6 -2 18 -2 25 0 6 3 1 5 -13 5 -14 0 -19 -2 -12 -5z"/>
<path d="M3781 2584 c0 -11 3 -14 6 -6 3 7 2 16 -1 19 -3 4 -6 -2 -5 -13z"/>
<path d="M3761 2514 c-7 -25 -10 -48 -8 -51 3 -2 10 17 16 43 7 25 10 48 8 51
-3 2 -10 -17 -16 -43z"/>
<path d="M3472 2525 c0 -16 2 -22 5 -12 2 9 2 23 0 30 -3 6 -5 -1 -5 -18z"/>
<path d="M3741 2434 c0 -11 3 -14 6 -6 3 7 2 16 -1 19 -3 4 -6 -2 -5 -13z"/>
<path d="M3726 2395 c-3 -8 -1 -15 4 -15 6 0 10 7 10 15 0 8 -2 15 -4 15 -2 0
-6 -7 -10 -15z"/>
<path d="M3715 2340 c-4 -17 -5 -34 -2 -36 2 -3 7 10 11 27 8 42 0 50 -9 9z"/>
<path d="M3694 2255 c-3 -20 -12 -35 -20 -35 -17 0 -36 -34 -28 -54 3 -8 -6
-32 -22 -53 l-27 -38 34 37 c19 20 46 39 62 42 28 7 38 38 16 52 -7 4 -9 21
-5 45 8 49 -1 52 -10 4z"/>
<path d="M3341 2100 c0 -8 4 -24 9 -35 5 -13 9 -14 9 -5 0 8 -4 24 -9 35 -5
13 -9 14 -9 5z"/>
<path d="M3520 2050 c-39 -39 -15 -81 48 -84 30 -2 50 -10 70 -29 15 -15 31
-27 35 -27 3 0 -12 17 -33 38 -32 29 -40 45 -42 77 -3 36 -6 40 -31 42 -17 1
-36 -6 -47 -17z"/>
<path d="M3361 2024 c0 -11 3 -14 6 -6 3 7 2 16 -1 19 -3 4 -6 -2 -5 -13z"/>
<path d="M3371 1984 c0 -11 3 -14 6 -6 3 7 2 16 -1 19 -3 4 -6 -2 -5 -13z"/>
<path d="M3382 1950 c0 -8 4 -26 8 -40 6 -20 8 -21 8 -5 0 11 -3 29 -8 40 -5
12 -8 14 -8 5z"/>
<path d="M3696 1894 c-28 -27 -12 -57 30 -56 16 0 45 -9 64 -20 l35 -20 -25
21 c-14 11 -28 21 -32 21 -5 0 -8 9 -8 19 0 20 -24 51 -40 51 -5 0 -16 -7 -24
-16z"/>
<path d="M3401 1875 c0 -5 6 -30 13 -55 8 -25 15 -36 15 -25 -1 21 -27 98 -28
80z"/>
<path d="M3834 1792 c8 -13 66 -56 66 -49 0 3 -17 17 -37 33 -20 15 -33 23
-29 16z"/>
<path d="M3431 1754 c0 -11 3 -14 6 -6 3 7 2 16 -1 19 -3 4 -6 -2 -5 -13z"/>
<path d="M3919 1726 c7 -8 21 -18 31 -21 11 -3 20 -17 22 -33 2 -21 9 -28 30
-30 22 -3 30 2 37 21 5 14 13 27 18 29 4 3 2 3 -6 1 -7 -2 -20 2 -27 8 -8 6
-21 8 -30 5 -9 -4 -33 3 -52 15 -23 13 -31 15 -23 5z"/>
<path d="M3428 1710 c-23 -22 -23 -53 0 -73 23 -21 46 -22 62 -2 7 8 20 15 29
15 9 0 12 3 6 8 -6 4 -18 19 -27 33 -21 33 -48 40 -70 19z"/>
<path d="M4085 1710 c-3 -6 1 -7 9 -4 18 7 21 14 7 14 -6 0 -13 -4 -16 -10z"/>
<path d="M3560 1640 c34 -11 60 -11 35 0 -11 5 -29 8 -40 8 -16 0 -15 -2 5 -8z"/>
<path d="M3628 1623 c7 -3 16 -2 19 1 4 3 -2 6 -13 5 -11 0 -14 -3 -6 -6z"/>
<path d="M3720 1614 c-19 -7 -30 -13 -23 -13 7 -1 23 -12 37 -26 15 -15 31
-22 41 -19 10 4 27 -4 46 -22 16 -15 29 -23 29 -18 0 6 -13 20 -30 32 -19 14
-27 28 -23 38 3 8 -2 21 -13 29 -22 17 -19 17 -64 -1z"/>
<path d="M3894 1477 c47 -43 176 -149 176 -144 0 5 -160 140 -191 161 -8 6 -1
-2 15 -17z"/>
<path d="M3605 1488 c-3 -7 -4 -29 -3 -48 1 -19 -1 -44 -5 -55 -4 -11 -1 -6 8
10 16 30 61 59 76 49 5 -3 1 9 -9 25 -18 32 -58 43 -67 19z"/>
<path d="M3710 1432 c8 -5 26 -13 40 -16 17 -5 20 -4 10 2 -8 5 -26 13 -40 16
-17 5 -20 4 -10 -2z"/>
<path d="M3790 1400 c8 -5 20 -10 25 -10 6 0 3 5 -5 10 -8 5 -19 10 -25 10 -5
0 -3 -5 5 -10z"/>
<path d="M3840 1380 c8 -5 20 -10 25 -10 6 0 3 5 -5 10 -8 5 -19 10 -25 10 -5
0 -3 -5 5 -10z"/>
<path d="M3890 1360 c8 -5 20 -10 25 -10 6 0 3 5 -5 10 -8 5 -19 10 -25 10 -5
0 -3 -5 5 -10z"/>
<path d="M3568 1326 c-12 -23 -25 -35 -46 -39 -35 -7 -47 -45 -25 -77 15 -21
57 -27 69 -9 3 6 16 8 28 5 19 -5 19 -4 4 8 -10 7 -15 16 -11 19 3 4 -2 18
-11 32 -15 23 -15 28 -1 56 9 17 15 33 13 35 -3 2 -12 -11 -20 -30z"/>
<path d="M3940 1340 c8 -5 20 -10 25 -10 6 0 3 5 -5 10 -8 5 -19 10 -25 10 -5
0 -3 -5 5 -10z"/>
<path d="M3990 1320 c8 -5 20 -10 25 -10 6 0 3 5 -5 10 -8 5 -19 10 -25 10 -5
0 -3 -5 5 -10z"/>
<path d="M3648 1183 c17 -9 32 -21 32 -26 0 -5 8 -19 19 -32 l18 -24 22 20
c23 22 25 28 12 48 -6 9 -19 12 -37 8 -17 -3 -40 1 -54 8 -14 8 -29 14 -35 14
-5 0 5 -8 23 -16z"/>
<path d="M3301 1154 c-28 -35 -26 -59 4 -90 51 -51 133 -8 119 63 -11 55 -88
72 -123 27z"/>
</g>
</svg>
